<mxfile host="Electron" modified="2023-04-30T17:02:30.351Z" agent="Mozilla/5.0 (Macintosh; Intel Mac OS X 10_15_7) AppleWebKit/537.36 (KHTML, like Gecko) draw.io/21.2.1 Chrome/112.0.5615.87 Electron/24.1.2 Safari/537.36" etag="Z58IgNO4nW2QX8jbf7_n" version="21.2.1" type="device">
  <diagram name="Page-1" id="sTeGwQV9_m6BofXgbJ5z">
    <mxGraphModel dx="1580" dy="1255" grid="1" gridSize="10" guides="1" tooltips="1" connect="1" arrows="1" fold="1" page="1" pageScale="1" pageWidth="1169" pageHeight="1654" math="0" shadow="0">
      <root>
        <mxCell id="0" />
        <mxCell id="1" parent="0" />
        <mxCell id="AoqqqO6MroJ7AJcKUCXX-30" value="Casa" style="rounded=1;whiteSpace=wrap;html=1;align=left;spacingLeft=12;spacingTop=2;spacing=0;fontSize=14;fillColor=none;strokeColor=#82b366;verticalAlign=top;arcSize=10;strokeWidth=1;fontFamily=Verdana;sketch=1;curveFitting=1;jiggle=2;shadow=0;glass=0;fillStyle=auto;" parent="1" vertex="1">
          <mxGeometry x="80" y="347.59" width="310" height="182.41" as="geometry" />
        </mxCell>
        <mxCell id="AoqqqO6MroJ7AJcKUCXX-31" value="Internet&lt;br&gt;&lt;font style=&quot;font-size: 13px;&quot;&gt;(EstÃ¡ndar)&lt;/font&gt;" style="ellipse;shape=cloud;whiteSpace=wrap;html=1;fillColor=none;strokeColor=#ae4132;fontSize=16;sketch=1;curveFitting=1;jiggle=2;fontFamily=Verdana;" parent="1" vertex="1">
          <mxGeometry x="113.9965231598378" y="80" width="217.92808610409728" height="145.28483184625944" as="geometry" />
        </mxCell>
        <mxCell id="AoqqqO6MroJ7AJcKUCXX-34" value="" style="points=[[0.5,0,0],[1,0.5,0],[0.5,1,0],[0,0.5,0],[0.145,0.145,0],[0.8555,0.145,0],[0.855,0.8555,0],[0.145,0.855,0]];verticalLabelPosition=middle;html=1;verticalAlign=middle;aspect=fixed;align=right;pointerEvents=1;shape=mxgraph.cisco19.rect;prIcon=router;fillColor=#d5e8d4;strokeColor=#82b366;fontSize=15;fontFamily=Verdana;spacing=5;labelPosition=left;" parent="1" vertex="1">
          <mxGeometry x="197.3992185278703" y="365.75154426904606" width="72.64231003039514" height="72.64231003039514" as="geometry" />
        </mxCell>
        <mxCell id="AoqqqO6MroJ7AJcKUCXX-35" value="" style="rounded=0;orthogonalLoop=1;jettySize=auto;html=1;startArrow=none;startFill=0;startSize=3;endSize=3;endArrow=none;endFill=0;exitX=0.55;exitY=0.95;exitDx=0;exitDy=0;exitPerimeter=0;sketch=1;curveFitting=1;jiggle=2;fontFamily=Verdana;" parent="1" source="AoqqqO6MroJ7AJcKUCXX-31" target="LYzUA_BZ724i3JHHC98a-23" edge="1">
          <mxGeometry x="561.04" y="250" relative="1" as="geometry">
            <mxPoint x="232.49999999999955" y="252.98000000000002" as="sourcePoint" />
            <mxPoint x="234.01999999999998" y="240" as="targetPoint" />
          </mxGeometry>
        </mxCell>
        <mxCell id="AoqqqO6MroJ7AJcKUCXX-37" value="" style="rounded=0;orthogonalLoop=1;jettySize=auto;html=1;entryX=0.5;entryY=0;entryDx=0;entryDy=0;entryPerimeter=0;startArrow=none;startFill=0;exitX=0.5;exitY=1;exitDx=0;exitDy=0;exitPerimeter=0;endSize=3;startSize=3;endArrow=none;endFill=0;sketch=1;curveFitting=1;jiggle=2;fontFamily=Verdana;" parent="1" source="AoqqqO6MroJ7AJcKUCXX-34" edge="1">
          <mxGeometry relative="1" as="geometry">
            <mxPoint x="251.88124005389466" y="338.5106382978724" as="sourcePoint" />
            <mxPoint x="233.72056621188676" y="459.1470830473577" as="targetPoint" />
          </mxGeometry>
        </mxCell>
        <mxCell id="zQq72EcLpgGWPdyKzjPa-5" value="" style="rounded=0;orthogonalLoop=1;jettySize=auto;html=1;entryX=0.5;entryY=0;entryDx=0;entryDy=0;entryPerimeter=0;startArrow=none;startFill=0;startSize=3;endSize=3;endArrow=none;endFill=0;exitX=0.5;exitY=1;exitDx=0;exitDy=0;sketch=1;curveFitting=1;jiggle=2;fontFamily=Verdana;exitPerimeter=0;" parent="1" source="LYzUA_BZ724i3JHHC98a-23" target="AoqqqO6MroJ7AJcKUCXX-34" edge="1">
          <mxGeometry relative="1" as="geometry">
            <mxPoint x="234.01999999999998" y="270.1199999999999" as="sourcePoint" />
            <mxPoint x="244" y="376" as="targetPoint" />
          </mxGeometry>
        </mxCell>
        <mxCell id="LYzUA_BZ724i3JHHC98a-1" value="&lt;pre&gt;192.168.100.0/24&lt;/pre&gt;" style="text;strokeColor=none;align=center;fillColor=none;html=1;verticalAlign=middle;whiteSpace=wrap;rounded=0;" vertex="1" parent="1">
          <mxGeometry x="168.69999999999993" y="468.79" width="132.6" height="30" as="geometry" />
        </mxCell>
        <mxCell id="LYzUA_BZ724i3JHHC98a-2" value="" style="edgeStyle=none;orthogonalLoop=1;jettySize=auto;html=1;rounded=0;strokeWidth=3;fillColor=#f8cecc;strokeColor=#b85450;" edge="1" parent="1">
          <mxGeometry width="80" relative="1" as="geometry">
            <mxPoint x="203.41999999999996" y="210" as="sourcePoint" />
            <mxPoint x="203.41999999999996" y="270" as="targetPoint" />
            <Array as="points" />
          </mxGeometry>
        </mxCell>
        <mxCell id="LYzUA_BZ724i3JHHC98a-4" value="" style="verticalLabelPosition=bottom;verticalAlign=top;html=1;shape=mxgraph.basic.x;fillColor=#f8cecc;strokeColor=#b85450;" vertex="1" parent="1">
          <mxGeometry x="193.41999999999996" y="227.12" width="18.88" height="18.88" as="geometry" />
        </mxCell>
        <mxCell id="LYzUA_BZ724i3JHHC98a-9" value="" style="edgeStyle=none;orthogonalLoop=1;jettySize=auto;html=1;rounded=0;endArrow=none;endFill=0;startArrow=classic;startFill=1;strokeWidth=3;fillColor=#d5e8d4;strokeColor=#82b366;" edge="1" parent="1">
          <mxGeometry width="80" relative="1" as="geometry">
            <mxPoint x="271" y="300" as="sourcePoint" />
            <mxPoint x="270.96000000000004" y="360.06" as="targetPoint" />
            <Array as="points" />
          </mxGeometry>
        </mxCell>
        <mxCell id="LYzUA_BZ724i3JHHC98a-10" value="&lt;p style=&quot;line-height: 80%; font-size: 6px;&quot;&gt;&lt;b style=&quot;font-size: 6px;&quot;&gt;&lt;font style=&quot;font-size: 6px;&quot;&gt;Masquerade&lt;/font&gt;&lt;/b&gt;&lt;/p&gt;" style="rounded=1;whiteSpace=wrap;html=1;fontSize=6;sketch=1;curveFitting=1;jiggle=1;strokeWidth=0.2;shadow=0;fillStyle=auto;fontFamily=Verdana;arcSize=50;" vertex="1" parent="1">
          <mxGeometry x="247" y="358" width="48.08" height="15" as="geometry" />
        </mxCell>
        <mxCell id="LYzUA_BZ724i3JHHC98a-11" value="Casa" style="rounded=1;whiteSpace=wrap;html=1;align=left;spacingLeft=12;spacingTop=2;spacing=0;fontSize=14;fillColor=none;strokeColor=#82b366;verticalAlign=top;arcSize=10;strokeWidth=1;fontFamily=Verdana;sketch=1;curveFitting=1;jiggle=2;shadow=0;glass=0;fillStyle=auto;" vertex="1" parent="1">
          <mxGeometry x="420" y="347.59" width="310" height="182.41" as="geometry" />
        </mxCell>
        <mxCell id="LYzUA_BZ724i3JHHC98a-12" value="Internet&lt;br&gt;&lt;font style=&quot;font-size: 13px;&quot;&gt;(Modo Bridge u ONT)&lt;/font&gt;" style="ellipse;shape=cloud;whiteSpace=wrap;html=1;fillColor=none;strokeColor=#ae4132;fontSize=16;sketch=1;curveFitting=1;jiggle=2;fontFamily=Verdana;" vertex="1" parent="1">
          <mxGeometry x="453.9965231598378" y="140" width="217.92808610409728" height="145.28483184625944" as="geometry" />
        </mxCell>
        <mxCell id="LYzUA_BZ724i3JHHC98a-13" value="" style="points=[[0.5,0,0],[1,0.5,0],[0.5,1,0],[0,0.5,0],[0.145,0.145,0],[0.8555,0.145,0],[0.855,0.8555,0],[0.145,0.855,0]];verticalLabelPosition=middle;html=1;verticalAlign=middle;aspect=fixed;align=right;pointerEvents=1;shape=mxgraph.cisco19.rect;prIcon=router;fillColor=#d5e8d4;strokeColor=#82b366;fontSize=15;fontFamily=Verdana;spacing=5;labelPosition=left;" vertex="1" parent="1">
          <mxGeometry x="537.3992185278703" y="365.75154426904606" width="72.64231003039514" height="72.64231003039514" as="geometry" />
        </mxCell>
        <mxCell id="LYzUA_BZ724i3JHHC98a-14" value="" style="rounded=0;orthogonalLoop=1;jettySize=auto;html=1;entryX=0.5;entryY=0;entryDx=0;entryDy=0;startArrow=none;startFill=0;startSize=3;endSize=3;endArrow=none;endFill=0;exitX=0.55;exitY=0.95;exitDx=0;exitDy=0;exitPerimeter=0;sketch=1;curveFitting=1;jiggle=2;fontFamily=Verdana;" edge="1" source="LYzUA_BZ724i3JHHC98a-12" target="LYzUA_BZ724i3JHHC98a-16" parent="1">
          <mxGeometry relative="1" as="geometry">
            <mxPoint x="572.4999999999995" y="312.98" as="sourcePoint" />
            <mxPoint x="573.7296465488078" y="347.5909402882636" as="targetPoint" />
          </mxGeometry>
        </mxCell>
        <mxCell id="LYzUA_BZ724i3JHHC98a-15" value="" style="rounded=0;orthogonalLoop=1;jettySize=auto;html=1;entryX=0.5;entryY=0;entryDx=0;entryDy=0;entryPerimeter=0;startArrow=none;startFill=0;exitX=0.5;exitY=1;exitDx=0;exitDy=0;exitPerimeter=0;endSize=3;startSize=3;endArrow=none;endFill=0;sketch=1;curveFitting=1;jiggle=2;fontFamily=Verdana;" edge="1" source="LYzUA_BZ724i3JHHC98a-13" parent="1">
          <mxGeometry relative="1" as="geometry">
            <mxPoint x="591.8812400538945" y="338.5106382978724" as="sourcePoint" />
            <mxPoint x="573.7205662118868" y="459.1470830473577" as="targetPoint" />
          </mxGeometry>
        </mxCell>
        <mxCell id="LYzUA_BZ724i3JHHC98a-16" value="&lt;div style=&quot;border-color: var(--border-color); font-size: 9px; line-height: 110%;&quot;&gt;PPPoE&lt;/div&gt;&lt;div style=&quot;border-color: var(--border-color); font-size: 9px; line-height: 110%;&quot;&gt;(vlan6)&lt;/div&gt;" style="rounded=1;whiteSpace=wrap;html=1;fontSize=10;sketch=1;curveFitting=1;jiggle=2;strokeWidth=0.5;shadow=0;fillStyle=auto;fillColor=#FFFFFF;fontFamily=Verdana;" vertex="1" parent="1">
          <mxGeometry x="551.04" y="300" width="45.96" height="30.12" as="geometry" />
        </mxCell>
        <mxCell id="LYzUA_BZ724i3JHHC98a-17" value="" style="rounded=0;orthogonalLoop=1;jettySize=auto;html=1;entryX=0.5;entryY=0;entryDx=0;entryDy=0;entryPerimeter=0;startArrow=none;startFill=0;startSize=3;endSize=3;endArrow=none;endFill=0;exitX=0.5;exitY=1;exitDx=0;exitDy=0;sketch=1;curveFitting=1;jiggle=2;fontFamily=Verdana;" edge="1" source="LYzUA_BZ724i3JHHC98a-16" target="LYzUA_BZ724i3JHHC98a-13" parent="1">
          <mxGeometry relative="1" as="geometry">
            <mxPoint x="584" y="331" as="sourcePoint" />
            <mxPoint x="584" y="376" as="targetPoint" />
          </mxGeometry>
        </mxCell>
        <mxCell id="LYzUA_BZ724i3JHHC98a-18" value="&lt;pre&gt;192.168.100.0/24&lt;/pre&gt;" style="text;strokeColor=none;align=center;fillColor=none;html=1;verticalAlign=middle;whiteSpace=wrap;rounded=0;" vertex="1" parent="1">
          <mxGeometry x="508.6999999999998" y="468.79" width="132.6" height="30" as="geometry" />
        </mxCell>
        <mxCell id="LYzUA_BZ724i3JHHC98a-19" value="" style="edgeStyle=none;orthogonalLoop=1;jettySize=auto;html=1;rounded=0;exitX=0.248;exitY=0.895;exitDx=0;exitDy=0;exitPerimeter=0;strokeWidth=3;fillColor=#f8cecc;strokeColor=#b85450;" edge="1" source="LYzUA_BZ724i3JHHC98a-12" parent="1">
          <mxGeometry width="80" relative="1" as="geometry">
            <mxPoint x="508.70000000000005" y="290" as="sourcePoint" />
            <mxPoint x="508" y="340" as="targetPoint" />
            <Array as="points" />
          </mxGeometry>
        </mxCell>
        <mxCell id="LYzUA_BZ724i3JHHC98a-20" value="" style="verticalLabelPosition=bottom;verticalAlign=top;html=1;shape=mxgraph.basic.x;fillColor=#f8cecc;strokeColor=#b85450;" vertex="1" parent="1">
          <mxGeometry x="494" y="291.12" width="29" height="29" as="geometry" />
        </mxCell>
        <mxCell id="LYzUA_BZ724i3JHHC98a-21" value="" style="edgeStyle=none;orthogonalLoop=1;jettySize=auto;html=1;rounded=0;exitX=0.248;exitY=0.895;exitDx=0;exitDy=0;exitPerimeter=0;endArrow=none;endFill=0;startArrow=classic;startFill=1;strokeWidth=3;fillColor=#d5e8d4;strokeColor=#82b366;" edge="1" parent="1">
          <mxGeometry width="80" relative="1" as="geometry">
            <mxPoint x="632" y="270.06" as="sourcePoint" />
            <mxPoint x="632" y="340.06" as="targetPoint" />
            <Array as="points" />
          </mxGeometry>
        </mxCell>
        <mxCell id="LYzUA_BZ724i3JHHC98a-22" value="&lt;p style=&quot;line-height: 80%; font-size: 6px;&quot;&gt;&lt;b style=&quot;font-size: 6px;&quot;&gt;&lt;font style=&quot;font-size: 6px;&quot;&gt;Masquerade&lt;/font&gt;&lt;/b&gt;&lt;/p&gt;" style="rounded=1;whiteSpace=wrap;html=1;fontSize=6;sketch=1;curveFitting=1;jiggle=1;strokeWidth=0.2;shadow=0;fillStyle=auto;fontFamily=Verdana;arcSize=50;" vertex="1" parent="1">
          <mxGeometry x="608.04" y="335" width="48.08" height="23.06" as="geometry" />
        </mxCell>
        <mxCell id="LYzUA_BZ724i3JHHC98a-23" value="" style="points=[[0.5,0,0],[1,0.5,0],[0.5,1,0],[0,0.5,0],[0.145,0.145,0],[0.8555,0.145,0],[0.855,0.8555,0],[0.145,0.855,0]];verticalLabelPosition=middle;html=1;verticalAlign=middle;aspect=fixed;align=right;pointerEvents=1;shape=mxgraph.cisco19.rect;prIcon=router;fillColor=#fff0f0;strokeColor=#b85450;fontSize=15;labelPosition=left;spacing=5;sketchStyle=rough;fillStyle=auto;movable=1;resizable=1;rotatable=1;deletable=1;editable=1;locked=0;connectable=1;comic=0;fontFamily=Verdana;" vertex="1" parent="1">
          <mxGeometry x="212.29999999999995" y="262" width="45.41" height="45.41" as="geometry" />
        </mxCell>
        <mxCell id="LYzUA_BZ724i3JHHC98a-27" value="&lt;div style=&quot;border-color: var(--border-color); font-size: 9px; line-height: 110%;&quot;&gt;PPPoE&lt;/div&gt;&lt;div style=&quot;border-color: var(--border-color); font-size: 9px; line-height: 110%;&quot;&gt;(vlan6)&lt;/div&gt;" style="rounded=1;whiteSpace=wrap;html=1;fontSize=10;sketch=1;curveFitting=1;jiggle=2;strokeWidth=0.5;shadow=0;fillStyle=auto;fillColor=#FFFFFF;fontFamily=Verdana;" vertex="1" parent="1">
          <mxGeometry x="210.74" y="197.57999999999998" width="45.96" height="30.12" as="geometry" />
        </mxCell>
        <mxCell id="LYzUA_BZ724i3JHHC98a-28" value="" style="edgeStyle=none;orthogonalLoop=1;jettySize=auto;html=1;rounded=0;endArrow=none;endFill=0;startArrow=classic;startFill=1;strokeWidth=3;fillColor=#d5e8d4;strokeColor=#82b366;exitX=0.69;exitY=0.91;exitDx=0;exitDy=0;exitPerimeter=0;" edge="1" parent="1" source="AoqqqO6MroJ7AJcKUCXX-31">
          <mxGeometry width="80" relative="1" as="geometry">
            <mxPoint x="264" y="223.42000000000002" as="sourcePoint" />
            <mxPoint x="263.96000000000004" y="253.54000000000002" as="targetPoint" />
            <Array as="points" />
          </mxGeometry>
        </mxCell>
        <mxCell id="LYzUA_BZ724i3JHHC98a-29" value="&lt;p style=&quot;line-height: 80%; font-size: 6px;&quot;&gt;&lt;b style=&quot;font-size: 6px;&quot;&gt;&lt;font style=&quot;font-size: 6px;&quot;&gt;Masquerade&lt;/font&gt;&lt;/b&gt;&lt;/p&gt;" style="rounded=1;whiteSpace=wrap;html=1;fontSize=6;sketch=1;curveFitting=1;jiggle=1;strokeWidth=0.2;shadow=0;fillStyle=auto;fontFamily=Verdana;arcSize=50;" vertex="1" parent="1">
          <mxGeometry x="240" y="248.48000000000002" width="48.08" height="12.52" as="geometry" />
        </mxCell>
        <mxCell id="LYzUA_BZ724i3JHHC98a-30" value="" style="edgeStyle=none;orthogonalLoop=1;jettySize=auto;html=1;rounded=0;strokeWidth=3;fillColor=#f8cecc;strokeColor=#b85450;" edge="1" parent="1">
          <mxGeometry width="80" relative="1" as="geometry">
            <mxPoint x="204" y="300" as="sourcePoint" />
            <mxPoint x="204.41999999999996" y="371" as="targetPoint" />
            <Array as="points" />
          </mxGeometry>
        </mxCell>
        <mxCell id="LYzUA_BZ724i3JHHC98a-31" value="" style="verticalLabelPosition=bottom;verticalAlign=top;html=1;shape=mxgraph.basic.x;fillColor=#f8cecc;strokeColor=#b85450;" vertex="1" parent="1">
          <mxGeometry x="194.41999999999996" y="314.12" width="18.88" height="18.88" as="geometry" />
        </mxCell>
        <mxCell id="LYzUA_BZ724i3JHHC98a-32" value="&lt;div style=&quot;border-color: var(--border-color); font-size: 9px; line-height: 110%;&quot;&gt;192.168.1.0/24&lt;/div&gt;" style="rounded=1;whiteSpace=wrap;html=1;fontSize=10;sketch=1;curveFitting=1;jiggle=2;strokeWidth=0.5;shadow=0;fillStyle=auto;fillColor=#FFFFFF;fontFamily=Verdana;" vertex="1" parent="1">
          <mxGeometry x="195.24" y="334" width="82.96" height="20" as="geometry" />
        </mxCell>
      </root>
    </mxGraphModel>
  </diagram>
</mxfile>
